# xmcd
#
# Track frame offsets:
#	150
#	23535
#	46542
#	64420
#	80722
#	104645
#	127725
#	150572
#	170302
#	192707
#
# Disc length: 2775 seconds
#
# Revision: 0
# Processed by: cddbd v1.5.1PL0 Copyright (c) Steve Scherf et al.
# Submitted via: dBpowerAMP V4.0
#
DISCID=7b0ad50a
DTITLE=Little Milton - Annie Mae's Cafe
DYEAR=1900
DGENRE=Blues
TTITLE0=I'm At The End Of My Rainbow
TTITLE1=A Real Good Woman
TTITLE2=Breakaway Clean
TTITLE3=Copyright On Your Love
TTITLE4=Cheatin' Is A Risky Business
TTITLE5=Annie Mae's Cafe
TTITLE6=This Must Be The Blues
TTITLE7=Too Hurt To Cry
TTITLE8=You're My Stronger Weakness
TTITLE9=Why Can't We Be Togather
EXTD=
EXTT0=
EXTT1=
EXTT2=
EXTT3=
EXTT4=
EXTT5=
EXTT6=
EXTT7=
EXTT8=
EXTT9=
PLAYORDER=
